# xmcd
#
# Track frame offsets:
#	150
#	15379
#	32035
#	49252
#	61403
#	79067
#	95012
#	109878
#	128992
#	141895
#	155440
#	171718
#	183325
#
# Disc length: 2663 seconds
#
# Revision: 1
# Processed by: cddbd v1.5.2PL0 Copyright (c) Steve Scherf et al.
# Submitted via: audiograbber 1.83.01
#
DISCID=b40a650d
DTITLE=The Sunny Cowgirls - Summer
DYEAR=2010
DGENRE=Country
TTITLE0=Summer
TTITLE1=Born To Be Single
TTITLE2=Rock Star
TTITLE3=Killalottametres
TTITLE4=Naughty Side
TTITLE5=Get On It
TTITLE6=Good Spot Here
TTITLE7=Twelve Trees
TTITLE8=Soft As Wool
TTITLE9=Remedy
TTITLE10=Bee Sting
TTITLE11=Not My Guy
TTITLE12=Bags Not Driving
EXTD=
EXTT0=
EXTT1=
EXTT2=
EXTT3=
EXTT4=
EXTT5=
EXTT6=
EXTT7=
EXTT8=
EXTT9=
EXTT10=
EXTT11=
EXTT12=
PLAYORDER=
